<?xml version="1.0" encoding="utf-8"?>
<!-- Generator: Adobe Illustrator 26.0.0, SVG Export Plug-In . SVG Version: 6.00 Build 0)  -->
<svg version="1.1" id="Layer_1" xmlns="http://www.w3.org/2000/svg" xmlns:xlink="http://www.w3.org/1999/xlink" x="0px" y="0px"
	 viewBox="0 0 436.6 256.2" style="enable-background:new 0 0 436.6 256.2;" xml:space="preserve">
<style type="text/css">
	.st0{fill:#F13C36;}
</style>
<g>
	<path class="st0" d="M30.6,113.6h45.3v43.5h13.5v-43.5h45.3v118H89.4v-47.7H75.8v47.7H30.6V113.6z"/>
	<path class="st0" d="M145.2,205.7v-50c0-17.2,18-27.6,48.5-27.6c29.1,0,47.5,10.4,47.5,27.6v29.2h-52.7v24.5c0,3.8,1.3,5.1,5.2,5.1
		s5.2-1.3,5.2-5.1v-7.6l42.2-7v11c0,17.2-18.3,27.6-47.5,27.6C163.2,233.3,145.2,222.9,145.2,205.7z M198.9,167.3V152
		c0-3.8-1.3-5.1-5.2-5.1s-5.2,1.3-5.2,5.1v15.3H198.9z"/>
	<polygon points="252.5,113.6 296.9,113.6 296.9,136.4 252.5,143.4 	"/>
	<polygon class="st0" points="252.5,151.3 296.9,144.3 296.9,231.6 252.5,231.6 	"/>
	<path class="st0" d="M308.7,113.6h44.5v118h-44.5V113.6z"/>
	<polygon points="365,113.6 409.4,113.6 409.4,143.4 365,136.7 	"/>
	<polygon class="st0" points="365,144.5 409.4,151.3 409.4,231.6 365,231.6 	"/>
	<path class="st0" d="M85.5,27.7L58.7,62.3l14.5,17.6c3.7,4.4,6.1,7.4,10.4,7.4c1.2,0,2.3-0.3,2.9-0.5v10.3c0,0-2.4,1.3-7,1.3
		c-6.8,0-11.7-3.6-17.8-11.2L44.8,66v31.6h-14V27.7h14v32.6l24.8-32.6H85.5z"/>
	<path class="st0" d="M126.2,67.8v-6c0-6.4-4.4-8.8-11.8-8.8c-8.5,0-15.1,3-15.1,3l-2.6-10c1.9-0.9,9.2-3.9,20-3.9
		c13.8,0,23.2,5,23.2,20.1v32.2c0,0-8.7,4.5-23.4,4.5c-14.5,0-22.7-4.6-22.7-15.9c0-10.5,7.6-15.9,22.9-15.9
		C120,67.1,123.1,67.3,126.2,67.8z M126.2,88.7v-12c-2.6-0.3-5.7-0.6-8.1-0.6c-6.1,0-10.4,1.2-10.4,7c0,5.7,4.2,6.9,9.4,6.9
		C122.1,89.9,126.2,88.7,126.2,88.7z"/>
	<path class="st0" d="M180.1,53.8c-0.9-0.1-2-0.1-3.5-0.1c-4.6,0-7.9,0.9-9.7,1.4v42.6h-13.7v-51c4.9-2.6,12.3-4.4,21.2-4.4
		c2.1,0,4.4,0.1,6.6,0.4L180.1,53.8z"/>
	<path class="st0" d="M205.8,43.1v55c0,11-4.6,21.2-18.4,21.2c-6.2,0-9.8-1.8-9.8-1.8l1.6-9.6c0.4,0.2,2.9,0.7,5.7,0.7
		c5.4,0,7.3-3.7,7.3-9.3V43.1H205.8z"/>
	<path d="M206.6,29c0,4.7-3.2,7.1-7.8,7.1c-4.8,0-7.9-2.4-7.9-7.1c0-4.5,3.1-7,7.9-7C203.4,22,206.6,24.4,206.6,29z"/>
	<path class="st0" d="M249.6,67.8v-6c0-6.4-4.4-8.8-11.8-8.8c-8.5,0-15.1,3-15.1,3l-2.6-10c1.9-0.9,9.2-3.9,20-3.9
		c13.8,0,23.2,5,23.2,20.1v32.2c0,0-8.7,4.5-23.4,4.5c-14.5,0-22.7-4.6-22.7-15.9c0-10.5,7.6-15.9,22.9-15.9
		C243.5,67.1,246.5,67.3,249.6,67.8z M249.6,88.7v-12c-2.6-0.3-5.7-0.6-8.1-0.6c-6.1,0-10.4,1.2-10.4,7c0,5.7,4.2,6.9,9.4,6.9
		C245.5,89.9,249.6,88.7,249.6,88.7z"/>
	<path class="st0" d="M290.3,97.6h-13.7V22.8h13.7V97.6z"/>
	<path class="st0" d="M334.2,67.8v-6c0-6.4-4.4-8.8-11.8-8.8c-8.5,0-15.1,3-15.1,3l-2.6-10c1.9-0.9,9.2-3.9,20-3.9
		c13.8,0,23.2,5,23.2,20.1v32.2c0,0-8.7,4.5-23.4,4.5c-14.5,0-22.7-4.6-22.7-15.9c0-10.5,7.6-15.9,22.9-15.9
		C328,67.1,331.1,67.3,334.2,67.8z M334.2,88.7v-12c-2.6-0.3-5.7-0.6-8.1-0.6c-6.1,0-10.4,1.2-10.4,7c0,5.7,4.2,6.9,9.4,6.9
		C330.1,89.9,334.2,88.7,334.2,88.7z"/>
	<path class="st0" d="M395.6,63.2c0-9.2-5.5-10.3-11.2-10.3c-5.6,0-9.5,1.4-9.5,1.4v43.3h-13.7V46.5c0,0,10.2-4.5,24-4.5
		c15.6,0,24,5.3,24,22.7v33h-13.6V63.2z"/>
</g>
</svg>
